# xmcd CD database file
#
# Track frame offsets:
#	150
#	15012
#	28585
#	44360
#	58985
#	71910
#	84232
#	99922
#	115704
#	132465
#	147285
#	161905
#	176992
#	189442
#	204365
#	219937
#
# Disc length: 3095 seconds
#
# Revision: 0
# Processed by: cddbd v1.5.2PL0 Copyright (c) Steve Scherf et al.
# Submitted via: CDex 1.51
#
DISCID=dd0c1510
DTITLE=Mastruz com Leite - Solando Pra Você Dançar e Cantar Volume II
DYEAR=1900
DGENRE=Forró
TTITLE0=meu vaqueiro, meu peão
TTITLE1=amor verdadeiro
TTITLE2=baião de dois - cavalo lampião
TTITLE3=meio dia
TTITLE4=viajante forrozeiro
TTITLE5=pneu furado
TTITLE6=flor do mamulengo
TTITLE7=leito da saudade - o peste - passeando pelo sertão
TTITLE8=meu estrangeiro - espaço sideral
TTITLE9=coragem pra falar
TTITLE10=no vôo da asa branca - mulher gado
TTITLE11=casa separada - só no nane nane
TTITLE12=desculpa esfarrapada
TTITLE13=brincar de amar
TTITLE14=filha do sol - os dez mandamentos
TTITLE15=fã de eline - esmeralda
EXTD=
EXTT0=
EXTT1=
EXTT2=
EXTT3=
EXTT4=
EXTT5=
EXTT6=
EXTT7=
EXTT8=
EXTT9=
EXTT10=
EXTT11=
EXTT12=
EXTT13=
EXTT14=
EXTT15=
PLAYORDER=
